<svg xmlns="http://www.w3.org/2000/svg" xmlns:xlink="http://www.w3.org/1999/xlink" width="60" zoomAndPan="magnify" viewBox="0 0 45 37.5" height="50" preserveAspectRatio="xMidYMid meet" version="1.0"><defs><g/><clipPath id="c02d606a79"><path d="M 0.296875 7 L 5 7 L 5 18 L 0.296875 18 Z M 0.296875 7 " clip-rule="nonzero"/></clipPath><clipPath id="028669d0d5"><path d="M 39 7 L 44.703125 7 L 44.703125 16 L 39 16 Z M 39 7 " clip-rule="nonzero"/></clipPath></defs><g clip-path="url(#c02d606a79)"><g fill="#000000" fill-opacity="1"><g transform="translate(1.718493, 15.197366)"><g><path d="M 0.234375 2.546875 C -0.160156 2.546875 -0.535156 2.503906 -0.890625 2.421875 L -0.890625 0.71875 C -0.773438 0.75 -0.648438 0.773438 -0.515625 0.796875 C -0.390625 0.828125 -0.25 0.84375 -0.09375 0.84375 C 0.269531 0.84375 0.53125 0.734375 0.6875 0.515625 C 0.84375 0.296875 0.921875 -0.078125 0.921875 -0.609375 L 0.921875 -8.09375 L 3.125 -8.09375 L 3.125 -0.796875 C 3.125 0.304688 2.878906 1.140625 2.390625 1.703125 C 1.910156 2.265625 1.191406 2.546875 0.234375 2.546875 Z M 0.234375 2.546875 "/></g></g></g></g><g fill="#000000" fill-opacity="1"><g transform="translate(5.712454, 15.197366)"><g><path d="M 7.765625 -8.09375 L 7.765625 -3.21875 C 7.765625 -2.164062 7.460938 -1.347656 6.859375 -0.765625 C 6.253906 -0.179688 5.390625 0.109375 4.265625 0.109375 C 3.160156 0.109375 2.3125 -0.171875 1.71875 -0.734375 C 1.125 -1.296875 0.828125 -2.109375 0.828125 -3.171875 L 0.828125 -8.09375 L 3.03125 -8.09375 L 3.03125 -3.34375 C 3.03125 -2.769531 3.132812 -2.351562 3.34375 -2.09375 C 3.5625 -1.84375 3.878906 -1.71875 4.296875 -1.71875 C 4.742188 -1.71875 5.066406 -1.84375 5.265625 -2.09375 C 5.472656 -2.351562 5.578125 -2.773438 5.578125 -3.359375 L 5.578125 -8.09375 Z M 7.765625 -8.09375 "/></g></g></g><g fill="#000000" fill-opacity="1"><g transform="translate(14.298629, 15.197366)"><g><path d="M 8.578125 0 L 5.71875 0 L 2.765625 -5.703125 L 2.703125 -5.703125 C 2.773438 -4.804688 2.8125 -4.125 2.8125 -3.65625 L 2.8125 0 L 0.875 0 L 0.875 -8.09375 L 3.734375 -8.09375 L 6.6875 -2.46875 L 6.71875 -2.46875 C 6.664062 -3.28125 6.640625 -3.9375 6.640625 -4.4375 L 6.640625 -8.09375 L 8.578125 -8.09375 Z M 8.578125 0 "/></g></g></g><g fill="#000000" fill-opacity="1"><g transform="translate(23.760039, 15.197366)"><g><path d="M 4.125 -4.734375 L 7.625 -4.734375 L 7.625 -0.375 C 6.675781 -0.0507812 5.628906 0.109375 4.484375 0.109375 C 3.242188 0.109375 2.28125 -0.25 1.59375 -0.96875 C 0.914062 -1.695312 0.578125 -2.734375 0.578125 -4.078125 C 0.578125 -5.378906 0.945312 -6.394531 1.6875 -7.125 C 2.4375 -7.851562 3.484375 -8.21875 4.828125 -8.21875 C 5.335938 -8.21875 5.816406 -8.164062 6.265625 -8.0625 C 6.722656 -7.96875 7.117188 -7.847656 7.453125 -7.703125 L 6.765625 -5.984375 C 6.179688 -6.273438 5.539062 -6.421875 4.84375 -6.421875 C 4.195312 -6.421875 3.703125 -6.210938 3.359375 -5.796875 C 3.015625 -5.378906 2.84375 -4.785156 2.84375 -4.015625 C 2.84375 -3.253906 3 -2.675781 3.3125 -2.28125 C 3.625 -1.882812 4.078125 -1.6875 4.671875 -1.6875 C 4.992188 -1.6875 5.296875 -1.71875 5.578125 -1.78125 L 5.578125 -3.046875 L 4.125 -3.046875 Z M 4.125 -4.734375 "/></g></g></g><g fill="#000000" fill-opacity="1"><g transform="translate(32.157871, 15.197366)"><g><path d="M 0.875 0 L 0.875 -8.09375 L 3.0625 -8.09375 L 3.0625 -1.765625 L 6.1875 -1.765625 L 6.1875 0 Z M 0.875 0 "/></g></g></g><g clip-path="url(#028669d0d5)"><g fill="#000000" fill-opacity="1"><g transform="translate(38.760916, 15.197366)"><g><path d="M 5.6875 0 L 0.875 0 L 0.875 -8.09375 L 5.6875 -8.09375 L 5.6875 -6.34375 L 3.0625 -6.34375 L 3.0625 -5.0625 L 5.484375 -5.0625 L 5.484375 -3.3125 L 3.0625 -3.3125 L 3.0625 -1.78125 L 5.6875 -1.78125 Z M 5.6875 0 "/></g></g></g></g><g fill="#737373" fill-opacity="1"><g transform="translate(1.127991, 27.772478)"><g><path d="M 5.03125 -7.203125 C 4.445312 -7.203125 3.988281 -6.960938 3.65625 -6.484375 C 3.332031 -6.003906 3.171875 -5.34375 3.171875 -4.5 C 3.171875 -2.75 3.832031 -1.875 5.15625 -1.875 C 5.5625 -1.875 5.953125 -1.929688 6.328125 -2.046875 C 6.703125 -2.160156 7.082031 -2.296875 7.46875 -2.453125 L 7.46875 -0.375 C 6.707031 -0.0390625 5.847656 0.125 4.890625 0.125 C 3.523438 0.125 2.472656 -0.269531 1.734375 -1.0625 C 1.003906 -1.863281 0.640625 -3.015625 0.640625 -4.515625 C 0.640625 -5.453125 0.816406 -6.273438 1.171875 -6.984375 C 1.523438 -7.703125 2.035156 -8.25 2.703125 -8.625 C 3.367188 -9.007812 4.148438 -9.203125 5.046875 -9.203125 C 6.023438 -9.203125 6.960938 -8.988281 7.859375 -8.5625 L 7.109375 -6.640625 C 6.773438 -6.796875 6.441406 -6.925781 6.109375 -7.03125 C 5.773438 -7.144531 5.414062 -7.203125 5.03125 -7.203125 Z M 5.03125 -7.203125 "/></g></g></g><g fill="#737373" fill-opacity="1"><g transform="translate(9.375484, 27.772478)"><g><path d="M 6.546875 0 L 6.109375 -1.703125 L 3.15625 -1.703125 L 2.6875 0 L 0 0 L 2.96875 -9.109375 L 6.234375 -9.109375 L 9.234375 0 Z M 5.59375 -3.71875 L 5.203125 -5.203125 C 5.109375 -5.535156 4.992188 -5.960938 4.859375 -6.484375 C 4.734375 -7.015625 4.648438 -7.394531 4.609375 -7.625 C 4.578125 -7.40625 4.503906 -7.050781 4.390625 -6.5625 C 4.285156 -6.082031 4.046875 -5.132812 3.671875 -3.71875 Z M 5.59375 -3.71875 "/></g></g></g><g fill="#737373" fill-opacity="1"><g transform="translate(18.603492, 27.772478)"><g><path d="M 3.4375 -3.296875 L 3.4375 0 L 0.984375 0 L 0.984375 -9.078125 L 3.953125 -9.078125 C 6.421875 -9.078125 7.65625 -8.179688 7.65625 -6.390625 C 7.65625 -5.335938 7.140625 -4.523438 6.109375 -3.953125 L 8.765625 0 L 5.984375 0 L 4.0625 -3.296875 Z M 3.4375 -5.140625 L 3.890625 -5.140625 C 4.742188 -5.140625 5.171875 -5.519531 5.171875 -6.28125 C 5.171875 -6.90625 4.753906 -7.21875 3.921875 -7.21875 L 3.4375 -7.21875 Z M 3.4375 -5.140625 "/></g></g></g><g fill="#737373" fill-opacity="1"><g transform="translate(27.204709, 27.772478)"><g><path d="M 8.6875 -4.734375 C 8.6875 -3.210938 8.269531 -2.039062 7.4375 -1.21875 C 6.601562 -0.40625 5.429688 0 3.921875 0 L 0.984375 0 L 0.984375 -9.078125 L 4.125 -9.078125 C 5.582031 -9.078125 6.707031 -8.703125 7.5 -7.953125 C 8.289062 -7.210938 8.6875 -6.140625 8.6875 -4.734375 Z M 6.140625 -4.640625 C 6.140625 -5.472656 5.972656 -6.085938 5.640625 -6.484375 C 5.316406 -6.890625 4.820312 -7.09375 4.15625 -7.09375 L 3.4375 -7.09375 L 3.4375 -2.015625 L 3.984375 -2.015625 C 4.722656 -2.015625 5.265625 -2.226562 5.609375 -2.65625 C 5.960938 -3.09375 6.140625 -3.753906 6.140625 -4.640625 Z M 6.140625 -4.640625 "/></g></g></g><g fill="#737373" fill-opacity="1"><g transform="translate(36.532008, 27.772478)"><g><path d="M 6.921875 -2.75 C 6.921875 -2.1875 6.773438 -1.6875 6.484375 -1.25 C 6.203125 -0.820312 5.789062 -0.484375 5.25 -0.234375 C 4.71875 0.00390625 4.085938 0.125 3.359375 0.125 C 2.753906 0.125 2.242188 0.0820312 1.828125 0 C 1.421875 -0.0820312 1 -0.234375 0.5625 -0.453125 L 0.5625 -2.640625 C 1.03125 -2.390625 1.515625 -2.195312 2.015625 -2.0625 C 2.523438 -1.9375 2.988281 -1.875 3.40625 -1.875 C 3.769531 -1.875 4.035156 -1.9375 4.203125 -2.0625 C 4.378906 -2.1875 4.46875 -2.347656 4.46875 -2.546875 C 4.46875 -2.671875 4.429688 -2.78125 4.359375 -2.875 C 4.296875 -2.96875 4.1875 -3.0625 4.03125 -3.15625 C 3.882812 -3.25 3.484375 -3.441406 2.828125 -3.734375 C 2.234375 -4.003906 1.785156 -4.265625 1.484375 -4.515625 C 1.191406 -4.773438 0.972656 -5.066406 0.828125 -5.390625 C 0.691406 -5.710938 0.625 -6.097656 0.625 -6.546875 C 0.625 -7.390625 0.925781 -8.039062 1.53125 -8.5 C 2.144531 -8.96875 2.984375 -9.203125 4.046875 -9.203125 C 4.984375 -9.203125 5.941406 -8.988281 6.921875 -8.5625 L 6.171875 -6.65625 C 5.316406 -7.050781 4.582031 -7.25 3.96875 -7.25 C 3.644531 -7.25 3.410156 -7.191406 3.265625 -7.078125 C 3.128906 -6.960938 3.0625 -6.820312 3.0625 -6.65625 C 3.0625 -6.476562 3.148438 -6.316406 3.328125 -6.171875 C 3.515625 -6.035156 4.015625 -5.785156 4.828125 -5.421875 C 5.609375 -5.066406 6.148438 -4.6875 6.453125 -4.28125 C 6.765625 -3.875 6.921875 -3.363281 6.921875 -2.75 Z M 6.921875 -2.75 "/></g></g></g></svg>